<svg width="100" height="26" viewBox="0 0 100 26" fill="none" xmlns="http://www.w3.org/2000/svg">
<g clip-path="url(#clip0_2158_2850)">
<path d="M11.9311 24.4421C18.4633 24.4421 23.7587 19.1468 23.7587 12.6146C23.7587 6.08236 18.4633 0.786972 11.9311 0.786972C5.39891 0.786972 0.103516 6.08236 0.103516 12.6146C0.103516 19.1468 5.39891 24.4421 11.9311 24.4421Z" fill="#F44B34"/>
<path d="M15.6548 5.89042C15.0686 5.26973 14.2755 4.99386 13.241 4.99386C10.103 4.95938 8.96511 4.95938 8.68925 4.95938L7.68925 7.30421H10.4824L8.62029 9.37317V16.6146H8.5858L8.62029 16.649V18.9594L7.37891 20.3387H13.7582L16.5513 17.3042V8.33869C16.5513 8.30421 16.5858 6.85593 15.6548 5.89042ZM13.8617 12.649L11.3099 15.3387V13.8559L13.8617 11.1663V12.649ZM11.3099 7.33869H12.3444C12.6548 7.33869 13.0686 7.30421 13.4134 7.64904C13.7582 7.99386 13.8961 8.51111 13.8961 9.33869V10.5801L11.3444 13.2697L11.3099 7.33869ZM9.62029 17.718L10.7582 16.4766L13.8617 13.2008V17.718C13.8617 17.7525 9.62029 17.7525 9.62029 17.718Z" fill="white"/>
<path d="M32.6357 7.52388L34.8788 5.28043L36.3175 6.71905L34.0744 8.9625L32.6357 7.52388ZM39.9995 14.8904L41.4478 16.3387L43.6892 14.0973L42.2409 12.649L39.9995 14.8904ZM38.8961 4.13181C39.5168 3.51112 40.5168 3.51112 41.1375 4.13181C41.7926 4.78698 41.7237 5.78698 41.1375 6.37319L39.9995 7.51112L41.4478 8.95939L42.5857 7.82146C43.2754 7.13181 44.2754 7.26974 44.8271 7.82146C45.5168 8.51112 45.3788 9.51112 44.8271 10.0628L43.6892 11.2008L45.1375 12.649L46.2754 11.5111C47.7237 10.0628 47.6547 7.78698 46.2754 6.40767C45.3099 5.44215 44.172 5.3387 43.6547 5.3387C43.6892 4.82146 43.5513 3.68353 42.5857 2.71802C41.2409 1.37319 38.9306 1.26974 37.4823 2.71802L36.3444 3.85595L37.7926 5.30422L38.8961 4.13181ZM36.3099 11.2353L37.7582 12.649L39.9995 10.4077L38.5513 8.99388L36.3099 11.2353Z" fill="#009AD9"/>
<path d="M32.6211 17.787L34.897 20.0283L36.3108 18.5801L34.0694 16.3387L32.6211 17.787ZM45.1383 12.649L43.6901 14.0973L44.828 15.2352C45.3797 15.787 45.5176 16.787 44.828 17.4766C44.2763 18.0283 43.2763 18.2008 42.5866 17.4766L41.4487 16.3387L40.0004 17.787L41.1383 18.9249C41.7245 19.5111 41.7935 20.5111 41.1383 21.1663C40.5176 21.787 39.5176 21.787 38.897 21.1663L37.759 20.0283L36.3108 21.4766L37.4487 22.6146C38.897 24.0628 41.2073 23.9594 42.5521 22.6146C43.5176 21.649 43.6211 20.5111 43.6211 19.9939C44.1383 19.9939 45.2763 19.8904 46.2418 18.9249C47.6211 17.5456 47.6901 15.2697 46.2418 13.8215L45.1383 12.649ZM36.3108 14.0973L38.5521 16.3387L40.0004 14.8904L37.759 12.649L36.3108 14.0973ZM41.4487 8.99387L40.0004 10.4077L42.2418 12.649L43.6901 11.2352L41.4487 8.99387Z" fill="#6EBD44"/>
<path d="M36.3212 18.548L38.5646 16.3046L40.0033 17.7432L37.7598 19.9863L36.3212 18.548ZM33.724 21.1663C33.1722 21.718 32.1722 21.8559 31.4826 21.1663C30.9309 20.6146 30.7584 19.6146 31.4826 18.9249L32.6205 17.787L31.1722 16.3387L30.0343 17.4766C29.4481 18.0628 28.4481 18.1318 27.7929 17.4766C27.1722 16.8559 27.1722 15.8559 27.7929 15.2352L28.9309 14.0973L27.4826 12.649L26.3446 13.787C24.8964 15.2352 24.9998 17.5456 26.3446 18.8904C27.3102 19.8559 28.4481 19.9594 28.9653 19.9594C28.9653 20.4766 29.0688 21.6146 30.0343 22.5801C31.4136 23.9594 33.6895 24.0283 35.1378 22.5801L36.2757 21.4421L34.8274 19.9939L33.724 21.1663ZM34.8964 12.649L32.6205 14.8904L34.0688 16.3387L36.3102 14.0973L34.8964 12.649ZM31.2067 8.99387L28.9653 11.2352L30.3791 12.649L32.6205 10.4077L31.2067 8.99387Z" fill="#F68F1E"/>
<path d="M32.6202 14.8904L30.3788 12.649L28.965 14.0973L31.2064 16.3387L32.6202 14.8904ZM27.7926 10.0628C27.1719 9.44214 27.1719 8.44214 27.7926 7.82145C28.4478 7.16628 29.4478 7.23525 30.034 7.82145L31.1719 8.95938L32.6202 7.51111L31.4823 6.37318C30.7926 5.68352 30.9306 4.68352 31.4823 4.1318C32.1719 3.44214 33.1719 3.58007 33.7237 4.1318L34.8616 5.26973L36.3099 3.82145L35.1719 2.718C33.7237 1.26973 31.4478 1.33869 30.0685 2.718C29.103 3.68352 28.9995 4.82145 28.9995 5.33869C28.4823 5.30421 27.3099 5.44214 26.3788 6.40766C25.034 7.75249 24.9306 10.0628 26.3788 11.5111L27.5168 12.649L28.965 11.2008L27.7926 10.0628ZM36.3202 6.72421L37.7588 5.28559L40.0019 7.52869L38.5633 8.96731L36.3202 6.72421ZM34.8961 12.649L36.3099 11.2352L34.0685 8.99387L32.6202 10.4077L34.8961 12.649Z" fill="#EC174C"/>
<path d="M34.877 5.24973L36.3152 3.81111L37.7539 5.24973L36.3156 6.68835L34.877 5.24973Z" fill="#573357"/>
<path d="M27.5205 12.6639L28.9591 11.2253L30.3977 12.6639L28.9591 14.1025L27.5205 12.6639Z" fill="#BE272D"/>
<path d="M42.2402 12.668L43.6785 11.2294L45.1171 12.668L43.6789 14.1066L42.2402 12.668Z" fill="#008E4C"/>
<path d="M34.8867 20.0166L36.3253 18.578L37.764 20.0166L36.3253 21.4552L34.8867 20.0166Z" fill="#7A773E"/>
<path d="M38.5713 8.9387L40.0099 7.50008L41.4485 8.9387L40.0099 10.3773L38.5713 8.9387Z" fill="#443639"/>
<path d="M31.1914 16.328L32.63 14.8894L34.0686 16.328L32.63 17.7666L31.1914 16.328Z" fill="#803136"/>
<path d="M31.1885 8.94318L32.6271 7.50456L34.0657 8.94353L32.6271 10.3818L31.1885 8.94318Z" fill="#593438"/>
<path d="M34.8809 12.6339L36.3195 11.1953L37.7581 12.6335L36.3195 14.0721L34.8809 12.6339Z" fill="#443639"/>
<path d="M38.5762 16.3225L40.0148 14.8839L41.4534 16.3225L40.0148 17.7611L38.5762 16.3225Z" fill="#2A6442"/>
<path d="M57.0346 4.37318C56.1725 3.61456 55.0691 3.23525 53.7243 3.23525H51.2415V11.3732H53.8622C55.1725 11.3732 56.276 10.9939 57.1036 10.2353C57.9312 9.47663 58.345 8.51112 58.345 7.30422C58.345 6.09732 57.8967 5.1318 57.0346 4.37318ZM57.0691 7.30422C57.0691 8.20077 56.7588 8.92491 56.1725 9.44215C55.5863 9.99387 54.7588 10.2353 53.7588 10.2353H52.4484V4.3387H53.7588C54.7588 4.3387 55.5519 4.61456 56.1725 5.1318C56.7588 5.64905 57.0691 6.40767 57.0691 7.30422ZM62.1036 5.1318C61.2415 5.1318 60.4829 5.44215 59.8967 6.06284C59.3105 6.68353 59.0001 7.44215 59.0001 8.3387C59.0001 9.23525 59.3105 9.99387 59.8967 10.6146C60.4829 11.2353 61.2415 11.5456 62.1036 11.5456H62.1381V11.5111C63.0001 11.5111 63.7588 11.2008 64.345 10.5801C64.9312 9.95939 65.2415 9.20077 65.2415 8.30422C65.2415 7.44215 64.9312 6.64905 64.345 6.02836C63.7243 5.44215 63.0001 5.1318 62.1036 5.1318ZM63.5174 9.85594C63.345 10.0628 63.1381 10.2008 62.8967 10.3042C62.6553 10.4077 62.4139 10.4077 62.1381 10.4077C61.5519 10.4077 61.1036 10.2008 60.7243 9.78698C60.345 9.37318 60.1725 8.85594 60.1725 8.26974C60.1725 7.68353 60.3794 7.16629 60.7243 6.78698C61.1036 6.37318 61.5519 6.20077 62.1381 6.20077C62.6898 6.20077 63.1725 6.40767 63.5174 6.78698C63.8967 7.20077 64.0691 7.68353 64.0691 8.26974C64.0691 8.92491 63.8967 9.44215 63.5174 9.85594ZM69.345 10.1318C69.1726 10.3387 68.8967 10.4421 68.5519 10.4421C68.0001 10.4421 67.7243 10.1318 67.7243 9.51112V6.3387H69.4484V5.30422H67.7243V3.78698H66.5863V5.30422H65.5863L65.6208 6.3387H66.6208V9.5456C66.6208 10.2008 66.7932 10.6835 67.1036 11.0284C67.4139 11.3732 67.8622 11.5456 68.4484 11.5456C69.0691 11.5456 69.5519 11.3732 69.8967 11.0284L69.345 10.1318ZM82.4829 6.1318C81.9657 5.44215 81.276 5.09732 80.3794 5.09732C79.5174 5.09732 78.8277 5.40767 78.276 6.02836C77.7243 6.64905 77.4484 7.40767 77.4484 8.30422C77.4484 9.23525 77.7243 9.99387 78.3105 10.5801C78.8967 11.2008 79.5863 11.5111 80.4139 11.5111C81.3105 11.5111 82.0001 11.1663 82.5174 10.4421V11.3387H83.6898V5.26974H82.5174V6.1318H82.4829ZM81.9312 6.82146C82.3105 7.23525 82.4829 7.71801 82.4829 8.30422C82.4829 8.89043 82.3105 9.40767 81.9312 9.82146C81.7588 10.0284 81.5519 10.1663 81.3105 10.2697C81.0691 10.3732 80.8277 10.4077 80.5519 10.4077C79.9657 10.4077 79.5174 10.2008 79.1381 9.78698C78.7588 9.37318 78.5863 8.85594 78.5863 8.26974C78.5863 7.68353 78.7932 7.16629 79.1381 6.78698C79.5174 6.37318 79.9657 6.20077 80.5519 6.20077C81.1036 6.23525 81.5519 6.40767 81.9312 6.82146ZM88.1036 8.06284C87.7932 7.95939 87.4484 7.85594 87.0691 7.75249C86.7243 7.64905 86.4139 7.5456 86.207 7.40767C85.9657 7.26974 85.8622 7.06284 85.8622 6.85594L85.8967 6.82146C85.8967 6.58008 86.0001 6.40767 86.207 6.26974C86.4139 6.1318 86.6898 6.06284 87.0001 6.06284C87.6898 6.06284 88.1725 6.30422 88.5519 6.75249L89.2415 6.06284C88.7932 5.44215 88.0346 5.1318 86.9657 5.1318C86.3105 5.1318 85.7588 5.30422 85.345 5.61456C84.9312 5.95939 84.7588 6.3387 84.7588 6.82146C84.7588 7.23525 84.8622 7.5456 85.1036 7.82146C85.345 8.09732 85.6208 8.26974 86.0001 8.40767C86.3794 8.5456 86.6898 8.64905 87.0001 8.75249C87.345 8.85594 87.6208 8.99387 87.8277 9.1318C88.0691 9.30422 88.1726 9.47663 88.1726 9.75249C88.1726 10.0284 88.0691 10.2353 87.8622 10.3732C87.6553 10.5456 87.3794 10.6146 87.0001 10.6146C86.207 10.6146 85.5863 10.3387 85.1726 9.82146L84.4829 10.5801C85.0001 11.2353 85.8277 11.5801 86.9312 11.5801C87.6898 11.5801 88.276 11.4077 88.6898 11.0628C89.1036 10.718 89.3105 10.2697 89.3105 9.75249C89.3105 9.3387 89.207 8.99387 88.9657 8.71801C88.7588 8.40767 88.4484 8.23525 88.1036 8.06284ZM93.2415 5.09732C92.4484 5.09732 91.8277 5.37318 91.4484 5.95939V2.61456H90.276V11.3732H91.4484L91.4829 7.82146C91.4829 7.3387 91.6208 6.92491 91.8967 6.64905C92.1726 6.37318 92.5174 6.23525 93.0001 6.23525C93.4484 6.23525 93.8277 6.37318 94.1036 6.68353C94.3794 6.95939 94.5174 7.37318 94.5174 7.85594V11.4077H95.6898V7.64905C95.6898 6.85594 95.4829 6.26974 95.0346 5.78698C94.5519 5.30422 93.9657 5.09732 93.2415 5.09732ZM75.2415 6.1318C74.7243 5.44215 74.0346 5.09732 73.1381 5.09732C72.276 5.09732 71.5863 5.40767 71.0346 6.02836C70.4829 6.64905 70.207 7.40767 70.207 8.30422C70.207 9.23525 70.4829 9.99387 71.0691 10.5801C71.6553 11.2008 72.345 11.5111 73.1725 11.5111C74.0691 11.5111 74.7588 11.1663 75.276 10.4421V11.3387H76.4484V2.61456H75.276V6.1318H75.2415ZM74.6898 6.82146C75.0691 7.23525 75.2415 7.71801 75.2415 8.30422C75.2415 8.89043 75.0691 9.40767 74.6898 9.82146C74.3105 10.2353 73.8622 10.4421 73.3105 10.4421C72.7243 10.4421 72.276 10.2353 71.8967 9.82146C71.5174 9.40767 71.345 8.89043 71.345 8.30422C71.345 7.71801 71.5519 7.20077 71.8967 6.82146C72.276 6.40767 72.7243 6.23525 73.3105 6.23525C73.8622 6.23525 74.3105 6.40767 74.6898 6.82146ZM91.5174 13.6835H90.276V20.2697C90.276 21.0973 90.5174 21.6835 91.0001 22.0284C91.4139 22.3387 92.0691 22.5111 92.9312 22.5111H92.9657V21.4766H92.9312C92.5174 21.4766 92.207 21.4077 92.0001 21.2697C91.6898 21.0628 91.5174 20.6835 91.5174 20.1318V17.3042H92.9312V16.2697H91.5174V13.6835ZM58.345 16.0973C57.8622 16.0973 57.4484 16.2008 57.0691 16.4421C56.7243 16.649 56.4829 16.9594 56.276 17.3387C55.8622 16.5111 55.1725 16.0973 54.207 16.0973C53.4484 16.0973 52.8277 16.4077 52.4139 16.9939V16.2697H51.207V22.5456H52.4139L52.4829 18.8559C52.4829 18.3387 52.6208 17.9594 52.8622 17.649C53.1036 17.3387 53.4829 17.2008 53.9312 17.2008C54.3794 17.2008 54.7243 17.3387 55.0001 17.649C55.276 17.9594 55.4139 18.3387 55.4139 18.8559V22.5111H56.5863V18.8559C56.5863 18.3387 56.7243 17.9594 57.0001 17.649C57.276 17.3387 57.6208 17.2008 58.1036 17.2008C58.5519 17.2008 58.8967 17.3387 59.1726 17.649C59.4139 17.9594 59.5519 18.3387 59.5519 18.8559V22.5111H60.7588V18.6835C60.7588 17.8904 60.5519 17.2697 60.1036 16.787C59.6553 16.3387 59.0691 16.0973 58.345 16.0973ZM64.8622 16.0973C64.0001 16.0973 63.2415 16.4077 62.6553 17.0628C62.0691 17.718 61.7588 18.4766 61.7588 19.4077C61.7588 20.3387 62.0691 21.1318 62.6898 21.7525C63.3105 22.3732 64.1036 22.718 65.0346 22.718H65.0691V22.6835C65.5519 22.6835 66.0001 22.5801 66.4139 22.4422C66.8277 22.2697 67.1726 22.0628 67.4484 21.787L66.8277 20.9594C66.3794 21.4077 65.7932 21.649 65.1036 21.649C64.5174 21.649 64.0346 21.4766 63.6553 21.0973C63.276 20.7525 63.0346 20.2697 62.9657 19.718H67.8967C67.9312 19.6146 67.9312 19.4766 67.9312 19.3042C67.9312 18.4422 67.6208 17.6835 67.0346 17.0628C66.4829 16.4422 65.7243 16.0973 64.8622 16.0973ZM64.8967 17.1318C65.3794 17.1318 65.7932 17.3042 66.1381 17.5801C66.4829 17.8904 66.6898 18.3042 66.7588 18.8904H63.0346C63.1381 18.3732 63.345 17.9594 63.6553 17.6146C64.0001 17.3042 64.4139 17.1318 64.8967 17.1318ZM72.6553 16.3387C72.4484 16.1663 72.1036 16.0628 71.6898 16.0628C71.0346 16.0628 70.5174 16.3732 70.1381 16.9594V16.2697H68.9657V22.5456H70.1725L70.1381 18.9249C70.1381 18.4077 70.2415 17.9939 70.4484 17.6835C70.6553 17.3732 70.9657 17.2353 71.345 17.2353C71.6553 17.2353 71.9312 17.3042 72.1381 17.4766H72.1726L72.6553 16.3387ZM75.7588 16.0973C74.8967 16.0973 74.1381 16.4077 73.5519 17.0628C72.9657 17.718 72.6553 18.4766 72.6553 19.4077C72.6553 20.3387 72.9657 21.1318 73.5863 21.7525C74.207 22.3732 75.0001 22.718 75.9312 22.718H75.9657V22.6835C76.4484 22.6835 76.8967 22.5801 77.3105 22.4422C77.7243 22.2697 78.0691 22.0628 78.345 21.787L77.7243 20.9594C77.276 21.4077 76.6898 21.649 76.0001 21.649C75.4139 21.649 74.9312 21.4766 74.5519 21.0973C74.1725 20.7525 73.9312 20.2697 73.8622 19.718H78.7932C78.8277 19.6146 78.8277 19.4766 78.8277 19.3042C78.8277 18.4422 78.5174 17.6835 77.9312 17.0628C77.3794 16.4422 76.6208 16.0973 75.7588 16.0973ZM75.7932 17.1318C76.276 17.1318 76.6898 17.3042 77.0346 17.5801C77.3794 17.8904 77.5863 18.3042 77.6553 18.8904H73.9312C74.0346 18.3732 74.2415 17.9594 74.5519 17.6146C74.8622 17.3042 75.276 17.1318 75.7932 17.1318ZM84.7932 17.1318C84.276 16.4421 83.5519 16.0628 82.6208 16.0628C81.7588 16.0628 81.0346 16.3732 80.4484 16.9939C79.8622 17.6146 79.5863 18.4077 79.5863 19.3387C79.5863 20.2697 79.8967 21.0628 80.4484 21.6835C81.0346 22.3042 81.7588 22.6146 82.6208 22.6146C83.5174 22.6146 84.2415 22.2353 84.7932 21.5111V22.4422H86.0001V13.6835H84.7932V17.1318ZM84.207 17.8215C84.5863 18.2353 84.7588 18.7525 84.7588 19.3732C84.7588 19.9594 84.5519 20.5111 84.207 20.9249C83.8277 21.3387 83.3794 21.5456 82.7588 21.5456C82.1725 21.5456 81.6898 21.3387 81.3105 20.9249C80.9312 20.5111 80.7243 19.9939 80.7243 19.3732C80.7243 18.7525 80.9312 18.2353 81.3105 17.8215C81.6898 17.4077 82.1725 17.2008 82.7588 17.2008C83.3794 17.2353 83.8277 17.4421 84.207 17.8215ZM99.207 16.787C98.7588 16.3042 98.1726 16.0628 97.4139 16.0628C96.5863 16.0628 95.9657 16.3732 95.5519 16.9594V13.649H94.345V22.5111H95.5519L95.5863 18.8904C95.5863 18.3732 95.7243 17.9939 96.0001 17.6835C96.276 17.3732 96.6208 17.2353 97.1036 17.2353C97.5863 17.2353 97.9657 17.3732 98.2415 17.6835C98.5174 17.9939 98.6553 18.3732 98.6553 18.8904V22.5456H99.8622V18.6835C99.8622 17.8904 99.6553 17.2697 99.207 16.787ZM87.6208 16.2697H88.8277V22.5456H87.6208V16.2697ZM87.6208 13.6835H88.7932V14.8559H87.6208V13.6835Z" fill="black"/>
</g>
<defs>
<clipPath id="clip0_2158_2850">
<rect width="100" height="25" fill="white" transform="translate(0 0.0800781)"/>
</clipPath>
</defs>
</svg>
