<svg width="14" height="15" viewBox="0 0 14 15" fill="none" xmlns="http://www.w3.org/2000/svg">
<path fill-rule="evenodd" clip-rule="evenodd" d="M61.2942 11.7519H65.8308C65.2603 16.7107 55.7078 16.7502 54.8728 12.818V15.3784H48.2858V12.7903C47.7114 15.3208 45.6946 15.6698 44.8107 15.6681C44.0692 15.6662 42.2517 15.2286 41.5801 13.8946L41.6445 15.347C41.658 16.2486 42.4603 16.8193 43.3124 16.9014V18.9982L35.6266 19L35.6261 16.9014C36.2716 16.8885 37.3061 16.4339 37.3171 15.4219V11.6219C37.0813 12.5772 36.0955 15.6667 31.3684 15.6667C26.684 15.6667 25.6245 12.4042 25.4237 11.9257C24.5487 15.4805 21.2563 15.6764 19.8105 15.6633C17.2137 15.6395 15.6596 14.3569 15.621 14.3286C14.0588 13.1897 13.7582 11.4647 13.8211 9.60474C13.8211 9.2305 13.9548 8.5028 14.0015 8.14548C12.3212 9.44152 10.7637 9.28013 8.91519 9.32936L7.36188 9.32746V11.4524C7.36041 12.3074 7.79781 12.8188 9.12724 12.8257V15.3818H0V12.8793C1.32945 12.8722 1.78432 12.3146 1.78284 11.4596V3.88139C1.78309 3.70053 1.72109 2.52848 0.00541224 2.5193V0H9.8547C11.7109 0 13.031 0.406048 13.9193 0.908354C15.5624 1.83737 15.8901 3.43401 16.0234 4.6163C18.533 3.04933 24.4786 2.69963 25.4739 7.38975C26.5485 3.81622 30.2168 3.54563 31.0759 3.54316C32.6176 3.5391 35.2511 4.20795 36.1058 6.01582V3.7869H41.5013V5.22105C41.8986 4.13872 43.2298 3.5504 44.5794 3.54475C45.8808 3.5391 48.5464 4.57674 49.2305 8.52702V3.26693C49.2244 2.50852 48.5786 2.11696 47.5219 2.12085L47.5185 0.0231371H53.7972V8.53053C54.3697 4.76166 57.299 3.55623 59.7649 3.55605C62.2688 3.5557 64.0438 4.55837 64.9533 5.84062C66.118 7.48143 66.0348 9.21583 65.9646 10.3394L58.3251 10.3409C58.298 10.5562 58.3263 10.9181 58.3496 11.251C58.4144 12.1841 58.8417 13.0285 59.8594 13.0246C60.688 13.0278 61.1249 12.4626 61.2942 11.7519ZM19.9544 13.0246C20.7828 13.0278 21.2202 12.4692 21.3892 11.7581L25.3684 11.7568C25.1669 11.044 25.143 10.8941 25.1212 10.34L18.4203 10.3409C18.3928 10.5562 18.4218 10.9181 18.445 11.251C18.5094 12.1841 18.9367 13.0285 19.9544 13.0246ZM29.7034 9.62611C29.7034 11.5166 30.1767 13.0384 31.3649 13.0499C32.5854 13.0612 33.0265 11.5166 33.0265 9.62611C33.0265 7.73502 32.5534 6.21437 31.3649 6.20231C30.2089 6.19068 29.7034 7.73502 29.7034 9.62611ZM19.9269 6.13504C18.9092 6.13118 18.4496 7.02501 18.3852 7.95809C18.363 8.27462 18.3551 8.28893 18.3852 8.52488H21.4045C21.4345 8.28893 21.4263 8.27462 21.4045 7.95809C21.3397 7.02501 20.9446 6.13118 19.9269 6.13504ZM59.8312 6.20409C58.8132 6.20023 58.3856 7.02501 58.3211 7.95809C58.2995 8.27462 58.2913 8.28893 58.3211 8.52488H61.3406C61.3707 8.28893 61.3626 8.27462 61.3406 7.95809C61.2762 7.02501 60.8486 6.20023 59.8312 6.20409ZM41.7875 11.3467C41.7875 12.2976 42.1134 13.02 43.0421 13.02C44.0795 13.02 44.6992 12.0103 44.6992 9.6365C44.6992 7.03018 44.1395 6.13575 43.1641 6.105C42.2199 6.07537 41.738 6.65166 41.7875 7.84065V11.3467ZM7.37714 6.46517H8.65716C9.81583 6.44201 10.2201 5.94041 10.2201 4.66805C10.2201 3.51084 9.65423 2.90962 8.65716 2.90962H7.37714V6.46517Z" fill="#20B1EA"/>
</svg>
