<svg width="120" height="49" viewBox="0 0 120 49" fill="none" xmlns="http://www.w3.org/2000/svg">
<g clip-path="url(#clip0_2158_2755)">
<path fill-rule="evenodd" clip-rule="evenodd" d="M111.171 29.7691H119.399C118.364 42.2965 101.039 42.3964 99.5241 32.4624V38.9308H87.5772V32.3923C86.5353 38.7853 82.8774 39.667 81.2742 39.6625C79.9293 39.6577 76.6329 38.5524 75.4147 35.1823L75.5316 38.8513C75.5562 41.1292 77.0112 42.5709 78.5568 42.7783V48.0756L64.6169 48.0801L64.616 42.7783C65.7867 42.7458 67.6631 41.5972 67.683 39.0406V29.4406C67.2552 31.8541 65.4672 39.6591 56.8937 39.6591C48.3975 39.6591 46.4758 31.4169 46.1116 30.2082C44.5247 39.1887 38.5532 39.6835 35.9308 39.6505C31.2208 39.5904 28.4022 36.3501 28.3321 36.2787C25.4988 33.4015 24.9536 29.0436 25.0677 24.3447C25.0677 23.3992 25.3101 21.5608 25.3948 20.6581C22.3473 23.9323 19.5224 23.5246 16.1697 23.649L13.3524 23.6442V29.0124C13.3497 31.1724 14.1431 32.4645 16.5543 32.4819V38.9394H0V32.6172C2.41125 32.5993 3.23626 31.1907 3.23358 29.0307V9.88568C3.23403 9.42878 3.12159 6.46783 0.00981632 6.44462V0.0800781H17.8737C21.2403 0.0800781 23.6346 1.10588 25.2458 2.37487C28.226 4.72186 28.8203 8.75548 29.062 11.7423C33.6138 7.78366 44.3974 6.90019 46.2027 18.7489C48.1516 9.72104 54.8049 9.03746 56.3631 9.03122C59.1594 9.02096 63.9358 10.7107 65.4859 15.2779V9.64697H75.2719V13.2701C75.9926 10.5358 78.4069 9.04951 80.8548 9.03523C83.2152 9.02096 88.0497 11.6424 89.2905 21.622V8.33336C89.2794 6.4174 88.1082 5.42819 86.1917 5.438L86.1855 0.13853H97.5733V21.6309C98.6116 12.1095 103.924 9.06424 108.397 9.06379C112.938 9.0629 116.158 11.596 117.807 14.8353C119.92 18.9805 119.769 23.3622 119.642 26.2008L105.786 26.2044C105.736 26.7483 105.788 27.6625 105.83 28.5037C105.948 30.861 106.723 32.9941 108.568 32.9844C110.071 32.9923 110.864 31.5646 111.171 29.7691ZM36.1918 32.9844C37.6942 32.9925 38.4876 31.5811 38.794 29.7847L46.0113 29.7816C45.6459 27.9807 45.6026 27.6019 45.563 26.2021L33.4093 26.2044C33.3594 26.7483 33.412 27.6625 33.454 28.5037C33.5709 30.861 34.3459 32.9941 36.1918 32.9844ZM53.8737 24.3987C53.8737 29.1747 54.7322 33.0192 56.8874 33.0481C59.1009 33.0768 59.901 29.1747 59.901 24.3987C59.901 19.6212 59.0429 15.7795 56.8874 15.7491C54.7906 15.7197 53.8737 19.6212 53.8737 24.3987ZM36.1419 15.5791C34.296 15.5694 33.4625 17.8275 33.3456 20.1847C33.3054 20.9844 33.2911 21.0205 33.3456 21.6166H38.8218C38.8763 21.0205 38.8614 20.9844 38.8218 20.1847C38.7043 17.8275 37.9878 15.5694 36.1419 15.5791ZM108.517 15.7536C106.671 15.7438 105.895 17.8275 105.778 20.1847C105.739 20.9844 105.724 21.0205 105.778 21.6166H111.255C111.309 21.0205 111.295 20.9844 111.255 20.1847C111.138 17.8275 110.363 15.7438 108.517 15.7536ZM75.791 28.7455C75.791 31.1478 76.3821 32.9728 78.0665 32.9728C79.9481 32.9728 81.072 30.4219 81.072 24.4249C81.072 17.8405 80.0569 15.5809 78.2878 15.5032C76.5753 15.4284 75.7013 16.8843 75.791 19.888V28.7455ZM13.3801 16.4131H15.7017C17.8032 16.3546 18.5364 15.0874 18.5364 11.873C18.5364 8.94956 17.5101 7.43071 15.7017 7.43071H13.3801V16.4131Z" fill="#20B1EA"/>
</g>
<defs>
<clipPath id="clip0_2158_2755">
<rect width="120" height="48" fill="white" transform="translate(0 0.0800781)"/>
</clipPath>
</defs>
</svg>
