<svg width="24" height="25" viewBox="0 0 24 25" fill="none" xmlns="http://www.w3.org/2000/svg">
<path fill-rule="evenodd" clip-rule="evenodd" d="M8.27308 3.13424C9.23393 3.09044 9.54073 3.08008 11.9874 3.08008C14.4341 3.08008 14.7409 3.09044 15.7017 3.13424C16.6606 3.17793 17.3155 3.33009 17.8886 3.55255C18.481 3.78255 18.9834 4.09029 19.4842 4.59063C19.985 5.091 20.2931 5.59291 20.5233 6.18474C20.746 6.7572 20.8983 7.41145 20.9421 8.36939C20.9859 9.32934 20.9963 9.63583 20.9963 12.0801C20.9963 14.5244 20.9859 14.8308 20.9421 15.7908C20.8983 16.7487 20.746 17.403 20.5233 17.9754C20.2931 18.5673 19.985 19.0692 19.4842 19.5696C18.9834 20.0699 18.481 20.3776 17.8886 20.6076C17.3155 20.8301 16.6606 20.9822 15.7017 21.0259C14.7409 21.0697 14.4341 21.0801 11.9874 21.0801C9.54073 21.0801 9.23393 21.0697 8.27308 21.0259C7.31415 20.9822 6.6593 20.8301 6.08624 20.6076C5.49382 20.3776 4.99142 20.0699 4.49059 19.5696C3.98976 19.0692 3.68172 18.5673 3.45149 17.9754C3.22877 17.403 3.0765 16.7487 3.03273 15.7908C2.98889 14.8308 2.97852 14.5244 2.97852 12.0801C2.97852 9.63583 2.98889 9.32934 3.03273 8.36939C3.0765 7.41145 3.22877 6.7572 3.45149 6.18474C3.68172 5.59291 3.98976 5.091 4.49059 4.59063C4.99142 4.09029 5.49382 3.78255 6.08624 3.55255C6.6593 3.33009 7.31415 3.17793 8.27308 3.13424ZM15.6277 4.75418C14.6778 4.71088 14.3929 4.7017 11.9874 4.7017C9.58192 4.7017 9.29702 4.71088 8.34703 4.75418C7.46871 4.79419 6.99166 4.94081 6.67422 5.06406C6.25374 5.22733 5.95364 5.42235 5.63837 5.73731C5.32314 6.05223 5.12788 6.35204 4.96446 6.77214C4.84112 7.08927 4.69436 7.56582 4.65427 8.44331C4.61093 9.39232 4.60177 9.67698 4.60177 12.0801C4.60177 14.4832 4.61093 14.7679 4.65427 15.7169C4.69436 16.5944 4.84112 17.0709 4.96446 17.388C5.12788 17.8081 5.32314 18.1079 5.63837 18.4229C5.95364 18.7378 6.25374 18.9329 6.67422 19.0961C6.99166 19.2194 7.46871 19.366 8.34707 19.406C9.29687 19.4493 9.58178 19.4585 11.9874 19.4585C14.393 19.4585 14.6779 19.4493 15.6277 19.406C16.5061 19.366 16.9831 19.2194 17.3006 19.0961C17.7211 18.9329 18.0212 18.7378 18.3364 18.4229C18.6517 18.1079 18.8469 17.8081 19.0103 17.388C19.1337 17.0709 19.2804 16.5944 19.3205 15.7169C19.3639 14.7679 19.373 14.4832 19.373 12.0801C19.373 9.67698 19.3639 9.39232 19.3205 8.44331C19.2804 7.56582 19.1337 7.08927 19.0103 6.77214C18.8469 6.35204 18.6517 6.05223 18.3364 5.73731C18.0212 5.42235 17.7211 5.22733 17.3006 5.06406C16.9831 4.94081 16.5061 4.79419 15.6277 4.75418ZM8.99769 12.0891C8.99769 13.7125 10.3422 15.0286 12.0006 15.0286C13.6591 15.0286 15.0036 13.7125 15.0036 12.0891C15.0036 10.4656 13.6591 9.14956 12.0006 9.14956C10.3422 9.14956 8.99769 10.4656 8.99769 12.0891ZM7.37448 12.0891C7.37448 9.58807 9.4457 7.56064 12.0006 7.56064C14.5556 7.56064 16.6268 9.58807 16.6268 12.0891C16.6268 14.5901 14.5556 16.6175 12.0006 16.6175C9.4457 16.6175 7.37448 14.5901 7.37448 12.0891ZM16.1485 8.57807C16.7455 8.57807 17.2295 8.10431 17.2295 7.51986C17.2295 6.93541 16.7455 6.46165 16.1485 6.46165C15.5514 6.46165 15.0674 6.93541 15.0674 7.51986C15.0674 8.10431 15.5514 8.57807 16.1485 8.57807Z" fill="black" fill-opacity="0.65"/>
</svg>
