<svg width="120" height="48" viewBox="0 0 120 48" fill="none" xmlns="http://www.w3.org/2000/svg">
<g clip-path="url(#clip0_2158_2877)">
<path fill-rule="evenodd" clip-rule="evenodd" d="M111.171 29.689H119.399C118.364 42.2164 101.039 42.3163 99.5241 32.3823V38.8507H87.5772V32.3122C86.5353 38.7052 82.8774 39.5869 81.2742 39.5825C79.9293 39.5776 76.6329 38.4723 75.4147 35.1022L75.5316 38.7712C75.5562 41.0491 77.0112 42.4908 78.5568 42.6982V47.9955L64.6169 48L64.616 42.6982C65.7867 42.6657 67.6631 41.5172 67.683 38.9605V29.3605C67.2552 31.774 65.4672 39.579 56.8937 39.579C48.3975 39.579 46.4758 31.3368 46.1116 30.1281C44.5247 39.1086 38.5532 39.6035 35.9308 39.5704C31.2208 39.5103 28.4022 36.27 28.3321 36.1986C25.4988 33.3214 24.9536 28.9635 25.0677 24.2646C25.0677 23.3191 25.3101 21.4808 25.3948 20.5781C22.3473 23.8523 19.5224 23.4445 16.1697 23.5689L13.3524 23.5641V28.9323C13.3497 31.0923 14.1431 32.3844 16.5543 32.4018V38.8593H0V32.5371C2.41125 32.5192 3.23626 31.1106 3.23358 28.9506V9.8056C3.23403 9.3487 3.12159 6.38775 0.00981632 6.36454V0H17.8737C21.2403 0 23.6346 1.0258 25.2458 2.29479C28.226 4.64178 28.8203 8.6754 29.062 11.6622C33.6138 7.70358 44.3974 6.82011 46.2027 18.6688C48.1516 9.64096 54.8049 8.95739 56.3631 8.95115C59.1594 8.94089 63.9358 10.6306 65.4859 15.1978V9.5669H75.2719V13.19C75.9926 10.4557 78.4069 8.96943 80.8548 8.95515C83.2152 8.94088 88.0497 11.5623 89.2905 21.542V8.25329C89.2794 6.33732 88.1082 5.34811 86.1917 5.35792L86.1855 0.0584517H97.5733V21.5508C98.6116 12.0294 103.924 8.98416 108.397 8.98371C112.938 8.98283 116.158 11.5159 117.807 14.7553C119.92 18.9004 119.769 23.2821 119.642 26.1207L105.786 26.1243C105.736 26.6682 105.788 27.5825 105.83 28.4237C105.948 30.7809 106.723 32.914 108.568 32.9043C110.071 32.9123 110.864 31.4846 111.171 29.689ZM36.1918 32.9043C37.6942 32.9124 38.4876 31.5011 38.794 29.7047L46.0113 29.7015C45.6459 27.9006 45.6026 27.5218 45.563 26.122L33.4093 26.1243C33.3594 26.6682 33.412 27.5825 33.454 28.4237C33.5709 30.7809 34.3459 32.914 36.1918 32.9043ZM53.8737 24.3186C53.8737 29.0946 54.7322 32.9391 56.8874 32.9681C59.1009 32.9967 59.901 29.0946 59.901 24.3186C59.901 19.5411 59.0429 15.6995 56.8874 15.669C54.7906 15.6396 53.8737 19.5411 53.8737 24.3186ZM36.1419 15.4991C34.296 15.4893 33.4625 17.7474 33.3456 20.1047C33.3054 20.9043 33.2911 20.9405 33.3456 21.5366H38.8218C38.8763 20.9405 38.8614 20.9043 38.8218 20.1047C38.7043 17.7474 37.9878 15.4893 36.1419 15.4991ZM108.517 15.6735C106.671 15.6638 105.895 17.7474 105.778 20.1047C105.739 20.9043 105.724 20.9405 105.778 21.5366H111.255C111.309 20.9405 111.295 20.9043 111.255 20.1047C111.138 17.7474 110.363 15.6638 108.517 15.6735ZM75.791 28.6655C75.791 31.0677 76.3821 32.8927 78.0665 32.8927C79.9481 32.8927 81.072 30.3419 81.072 24.3449C81.072 17.7605 80.0569 15.5008 78.2878 15.4231C76.5753 15.3483 75.7013 16.8042 75.791 19.808V28.6655ZM13.3801 16.333H15.7017C17.8032 16.2745 18.5364 15.0073 18.5364 11.793C18.5364 8.86948 17.5101 7.35063 15.7017 7.35063H13.3801V16.333Z" fill="#20B1EA"/>
</g>
<defs>
<clipPath id="clip0_2158_2877">
<rect width="120" height="48" fill="white"/>
</clipPath>
</defs>
</svg>
