<svg width="20" height="20" viewBox="0 0 20 20" fill="none" xmlns="http://www.w3.org/2000/svg">
<path fill-rule="evenodd" clip-rule="evenodd" d="M3.33398 7.63091C3.33398 9.27425 3.95482 10.7351 5.28898 11.2792C5.50732 11.3684 5.70398 11.2826 5.76648 11.0409C5.81148 10.8734 5.91482 10.4501 5.96148 10.2742C6.02565 10.0342 6.00148 9.95091 5.82482 9.74175C5.43982 9.28841 5.19482 8.70091 5.19482 7.86925C5.19482 5.45675 6.99982 3.29591 9.89563 3.29591C12.459 3.29591 13.869 4.86258 13.869 6.95591C13.869 9.70925 12.6498 12.0326 10.8406 12.0326C9.84146 12.0326 9.09479 11.2059 9.33396 10.1926C9.62146 8.98341 10.1765 7.67841 10.1765 6.80508C10.1765 6.02341 9.75813 5.37091 8.88979 5.37091C7.86815 5.37091 7.04732 6.42758 7.04732 7.84258C7.04732 8.74425 7.35232 9.35341 7.35232 9.35341C7.35232 9.35341 6.30732 13.7817 6.12398 14.5567C5.75898 16.1009 6.06898 17.9942 6.09565 18.1859C6.11065 18.2984 6.25648 18.3259 6.32315 18.2401C6.41648 18.1167 7.63232 16.6151 8.04648 15.1151C8.16315 14.6909 8.71813 12.4901 8.71813 12.4901C9.05063 13.1234 10.0198 13.6809 11.0506 13.6809C14.1206 13.6809 16.2031 10.8826 16.2031 7.13675C16.2031 4.30425 13.804 1.66675 10.1581 1.66675C5.62065 1.66675 3.33398 4.91925 3.33398 7.63091Z" fill="#BD081C"/>
</svg>
