<svg width="24" height="25" viewBox="0 0 24 25" fill="none" xmlns="http://www.w3.org/2000/svg">
<path fill-rule="evenodd" clip-rule="evenodd" d="M4 9.23708C4 11.2091 4.745 12.9621 6.346 13.6151C6.608 13.7221 6.844 13.6191 6.919 13.3291C6.973 13.1281 7.097 12.6201 7.153 12.4091C7.23 12.1211 7.201 12.0211 6.989 11.7701C6.527 11.2261 6.233 10.5211 6.233 9.52308C6.233 6.62808 8.399 4.03508 11.874 4.03508C14.95 4.03508 16.642 5.91508 16.642 8.42708C16.642 11.7311 15.179 14.5191 13.008 14.5191C11.809 14.5191 10.913 13.5271 11.2 12.3111C11.545 10.8601 12.211 9.29408 12.211 8.24608C12.211 7.30808 11.709 6.52508 10.667 6.52508C9.441 6.52508 8.456 7.79308 8.456 9.49108C8.456 10.5731 8.822 11.3041 8.822 11.3041C8.822 11.3041 7.568 16.6181 7.348 17.5481C6.91 19.4011 7.282 21.6731 7.314 21.9031C7.332 22.0381 7.507 22.0711 7.587 21.9681C7.699 21.8201 9.158 20.0181 9.655 18.2181C9.795 17.7091 10.461 15.0681 10.461 15.0681C10.86 15.8281 12.023 16.4971 13.26 16.4971C16.944 16.4971 19.443 13.1391 19.443 8.64408C19.443 5.24508 16.564 2.08008 12.189 2.08008C6.744 2.08008 4 5.98308 4 9.23708Z" fill="black" fill-opacity="0.65"/>
</svg>
