<svg width="19" height="19" viewBox="0 0 19 19" fill="none" xmlns="http://www.w3.org/2000/svg">
<path fill-rule="evenodd" clip-rule="evenodd" d="M13.1699 11.885H12.3799L12.0999 11.615C13.0799 10.475 13.6699 8.99501 13.6699 7.38501C13.6699 3.79501 10.7599 0.88501 7.16992 0.88501C3.57992 0.88501 0.669922 3.79501 0.669922 7.38501C0.669922 10.975 3.57992 13.885 7.16992 13.885C8.77992 13.885 10.2599 13.295 11.3999 12.315L11.6699 12.595V13.385L16.6699 18.375L18.1599 16.885L13.1699 11.885ZM7.16992 11.885C4.67992 11.885 2.66992 9.87501 2.66992 7.38501C2.66992 4.89501 4.67992 2.88501 7.16992 2.88501C9.65992 2.88501 11.6699 4.89501 11.6699 7.38501C11.6699 9.87501 9.65992 11.885 7.16992 11.885Z" fill="black" fill-opacity="0.65"/>
</svg>
