<svg width="24" height="25" viewBox="0 0 24 25" fill="none" xmlns="http://www.w3.org/2000/svg">
<path d="M20.4761 9.57657C20.3086 9.59298 20.1411 9.60173 19.9736 9.60301C18.1346 9.60301 16.4192 8.65028 15.4105 7.06787V15.7002C15.4105 19.2232 12.6324 22.0801 9.20399 22.0801C5.77554 22.0801 3 19.2232 3 15.7002C3 12.1771 5.77798 9.32016 9.20644 9.32016C9.33604 9.32016 9.4632 9.33274 9.59036 9.34031V12.4838C9.4632 12.4687 9.33727 12.4436 9.20644 12.4436C7.45675 12.4436 6.03964 13.9016 6.03964 15.6989C6.03964 17.4975 7.45798 18.9542 9.20644 18.9542C10.9561 18.9542 12.5016 17.5377 12.5016 15.7391L12.5322 1.08008H15.4581C15.7344 3.77735 17.8497 5.88388 20.481 6.08121V9.57538" fill="black" fill-opacity="0.65"/>
</svg>
