<svg width="20" height="20" viewBox="0 0 20 20" fill="none" xmlns="http://www.w3.org/2000/svg">
<path fill-rule="evenodd" clip-rule="evenodd" d="M18.0745 4.91159C17.472 5.17909 16.8228 5.35992 16.142 5.44159C16.837 5.02492 17.3695 4.36492 17.622 3.57909C16.9712 3.96492 16.2495 4.24492 15.4837 4.39575C14.8703 3.74159 13.9945 3.33325 13.027 3.33325C11.1678 3.33325 9.66033 4.83992 9.66033 6.69908C9.66033 6.96325 9.69032 7.21992 9.74782 7.46659C6.95033 7.32575 4.46866 5.98575 2.80949 3.94909C2.52033 4.44659 2.35366 5.02492 2.35366 5.64159C2.35366 6.80909 2.94783 7.83992 3.85116 8.44325C3.29949 8.42575 2.78033 8.27409 2.32616 8.02242V8.06492C2.32616 9.69575 3.48783 11.0558 5.02616 11.3649C4.74449 11.4424 4.44699 11.4833 4.13949 11.4833C3.92199 11.4833 3.71199 11.4624 3.50699 11.4233C3.93449 12.7599 5.17783 13.7341 6.65033 13.7608C5.49866 14.6633 4.04866 15.2016 2.47033 15.2016C2.19866 15.2016 1.93116 15.1858 1.66699 15.1549C3.15699 16.1099 4.92533 16.6666 6.82699 16.6666C13.0195 16.6666 16.4053 11.5374 16.4053 7.08992C16.4053 6.94325 16.402 6.79825 16.3953 6.65409C17.0528 6.17909 17.6237 5.58659 18.0745 4.91159Z" fill="#1DA1F2"/>
</svg>
