<svg width="24" height="25" viewBox="0 0 24 25" fill="none" xmlns="http://www.w3.org/2000/svg">
<path fill-rule="evenodd" clip-rule="evenodd" d="M21.689 5.97408C20.966 6.29508 20.187 6.51208 19.37 6.61008C20.204 6.11008 20.843 5.31808 21.146 4.37508C20.365 4.83808 19.499 5.17408 18.58 5.35508C17.844 4.57008 16.793 4.08008 15.632 4.08008C13.401 4.08008 11.592 5.88808 11.592 8.11908C11.592 8.43608 11.628 8.74408 11.697 9.04008C8.34 8.87108 5.362 7.26308 3.371 4.81908C3.024 5.41608 2.824 6.11008 2.824 6.85008C2.824 8.25108 3.537 9.48808 4.621 10.2121C3.959 10.1911 3.336 10.0091 2.791 9.70708V9.75808C2.791 11.7151 4.185 13.3471 6.031 13.7181C5.693 13.8111 5.336 13.8601 4.967 13.8601C4.706 13.8601 4.454 13.8351 4.208 13.7881C4.721 15.3921 6.213 16.5611 7.98 16.5931C6.598 17.6761 4.858 18.3221 2.964 18.3221C2.638 18.3221 2.317 18.3031 2 18.2661C3.788 19.4121 5.91 20.0801 8.192 20.0801C15.623 20.0801 19.686 13.9251 19.686 8.58808C19.686 8.41208 19.682 8.23808 19.674 8.06508C20.463 7.49508 21.148 6.78408 21.689 5.97408Z" fill="black" fill-opacity="0.65"/>
</svg>
