<svg width="24" height="25" viewBox="0 0 24 25" fill="none" xmlns="http://www.w3.org/2000/svg">
<path fill-rule="evenodd" clip-rule="evenodd" d="M19.8139 5.50076C20.6744 5.73224 21.352 6.41428 21.582 7.28042C22 8.85019 22 12.1256 22 12.1256C22 12.1256 22 15.4008 21.582 16.9708C21.352 17.8368 20.6744 18.5188 19.8139 18.7504C18.2542 19.171 12 19.171 12 19.171C12 19.171 5.7458 19.171 4.18614 18.7504C3.32568 18.5188 2.64795 17.8368 2.41795 16.9708C2 15.4008 2 12.1256 2 12.1256C2 12.1256 2 8.85019 2.41795 7.28042C2.64795 6.41428 3.32568 5.73224 4.18614 5.50076C5.7458 5.08008 12 5.08008 12 5.08008C12 5.08008 18.2542 5.08008 19.8139 5.50076ZM15.1818 12.1257L9.95455 15.0993V9.15178L15.1818 12.1257Z" fill="black" fill-opacity="0.65"/>
</svg>
